# xmcd CD database file
#
# Track frame offsets:
#	150
#	17612
#	33610
#	51232
#	64532
#	84280
#	99767
#	117407
#	134427
#	154042
#	171677
#	188462
#	207527
#	228082
#
# Disc length: 3319 seconds
#
# Revision: 6
# Processed by: cddbd v1.5.2PL0 Copyright (c) Steve Scherf et al.
# Submitted via: CDex 1.70beta2
#
DISCID=b30cf50e
DTITLE=Backstreet Boys - Millennium
DYEAR=2000
DGENRE=Pop
TTITLE0=Larger Than Life
TTITLE1=I Want It That Way
TTITLE2=Show Me The Meaning Of Being Lonely
TTITLE3=It's Gotta Be You
TTITLE4=I Need You Tonight
TTITLE5=Don't Want You Back
TTITLE6=Don't Wanna Lose You Now
TTITLE7=The One
TTITLE8=Back To Your Heart
TTITLE9=Spanish Eyes
TTITLE10=No One Else Comes Close
TTITLE11=The Perfect Fan
TTITLE12=I'll Be There For You
TTITLE13=You Wrote The Book On Love
EXTD=YEAR: 2000
EXTT0=
EXTT1=
EXTT2=
EXTT3=
EXTT4=
EXTT5=
EXTT6=
EXTT7=
EXTT8=
EXTT9=
EXTT10=
EXTT11=
EXTT12=
EXTT13=
PLAYORDER=
